<svg width="20" height="14" viewBox="0 0 20 14" fill="none" xmlns="http://www.w3.org/2000/svg">
<path d="M18.8209 0.350997C19.0456 0.576031 19.1719 0.881076 19.1719 1.19913C19.1719 1.51717 19.0456 1.82222 18.8209 2.04725L7.21912 13.649C6.99408 13.8738 6.68904 14 6.37099 14C6.05294 14 5.74789 13.8738 5.52286 13.649L0.322077 8.44822C0.110191 8.22057 -0.00519209 7.91964 0.000179477 7.60868C0.00555104 7.29773 0.131259 7.00097 0.350881 6.78077C0.571079 6.56114 0.867843 6.43544 1.1788 6.43007C1.48975 6.42469 1.79068 6.54008 2.01833 6.75196L6.37099 11.1046L17.1246 0.350997C17.3496 0.126242 17.6547 0 17.9727 0C18.2908 0 18.5958 0.126242 18.8209 0.350997Z" fill="#D9D9D9"/>
</svg>
