<svg width="19" height="14" viewBox="0 0 19 14" fill="none" xmlns="http://www.w3.org/2000/svg">
<path d="M18.6521 0.34785C18.8749 0.570867 19 0.873178 19 1.18838C19 1.50357 18.8749 1.80588 18.6521 2.0289L7.1544 13.5266C6.93138 13.7494 6.62907 13.8745 6.31388 13.8745C5.99868 13.8745 5.69637 13.7494 5.47335 13.5266L0.319189 8.37249C0.109203 8.14687 -0.00514555 7.84864 0.000177868 7.54048C0.00550128 7.23231 0.130082 6.93821 0.347735 6.71998C0.56596 6.50233 0.860064 6.37775 1.16823 6.37242C1.4764 6.3671 1.77463 6.48145 2.00024 6.69144L6.31388 11.0051L16.9711 0.34785C17.1941 0.12511 17.4964 0 17.8116 0C18.1268 0 18.4291 0.12511 18.6521 0.34785Z" fill="#D9D9D9"/>
</svg>
