<svg width="41" height="24" viewBox="0 0 41 24" fill="none" xmlns="http://www.w3.org/2000/svg">
<path fill-rule="evenodd" clip-rule="evenodd" d="M14.8883 13.093L14.0852 13.8366V18.86V23.8835H17.6545C20.9616 23.8835 21.3208 23.8355 22.5462 23.2301C25.0967 21.9704 25.9707 20.1042 26.1713 15.4893L26.3079 12.3495H20.9996H15.6914L14.8883 13.093ZM18.8041 21.3193C22.2105 21.3178 23.2725 20.2897 23.5763 16.6993L23.7273 14.9126H20.1991H16.6709V18.1165V21.3204L18.8041 21.3193Z" fill="#004170"/>
<path d="M29.8664 1.15953C30.2103 0.753623 30.7111 0.333288 30.9791 0.225528C31.2473 0.117768 33.3908 0.0228088 35.742 0.0146628L40.0172 0V1.16372V2.32743H35.9259C32.1757 2.32743 31.8152 2.36351 31.6013 2.7608C31.4387 3.06267 31.4539 3.30589 31.6516 3.5626C31.8822 3.86238 32.5636 3.94453 35.2934 4.00202L38.6512 4.07301L39.3343 4.83315C39.7098 5.25116 40.0172 5.85326 40.0172 6.17142C40.0172 6.69742 39.9265 6.74956 39.0099 6.74956C38.4558 6.74956 37.9023 6.6539 37.78 6.53683C37.6577 6.41976 36.1344 6.28803 34.395 6.24381C31.7709 6.17724 31.1208 6.08857 30.5764 5.72363C29.1156 4.74471 28.7609 2.46499 29.8664 1.15953Z" fill="#004170"/>
<path d="M30.1784 9.46498C30.1784 8.91012 30.2508 8.38435 30.3391 8.2966C30.4277 8.20863 32.6676 8.1651 35.3171 8.19955L40.1343 8.26239L40.2058 9.36792L40.2772 10.4735H35.2278H30.1784V9.46498Z" fill="#004170"/>
<path d="M25.3766 10.4735V5.23673V0L26.5479 0L27.7192 0V5.23673V10.4735H26.5479H25.3766Z" fill="#004170"/>
<path d="M13.1539 2.34442V1.1721V0L17.7179 0.0721503L22.2819 0.144068L23.0142 0.872089C24.3635 2.21386 24.1923 4.59831 22.6689 5.67778C22.0158 6.14047 21.5975 6.20401 18.7175 6.27593L15.4965 6.35646V8.4288V10.5011H14.3252H13.1539V7.24274V3.98433L17.0777 3.98084C19.2359 3.97875 21.1425 3.88844 21.3147 3.77999C21.4871 3.67129 21.5925 3.33265 21.549 3.02706L21.47 2.4715L17.312 2.40796L13.1539 2.34442Z" fill="#004170"/>
<path d="M21.5871 10.5011V8.52283V6.54451H22.7584H23.9297V8.52283V10.5011H22.7584H21.5871Z" fill="#004170"/>
<path d="M28.2868 14.9505V13.6499V12.3495L33.365 12.4295L38.4433 12.5093L39.258 13.317C40.7594 14.8056 40.5689 17.4511 38.8739 18.6487C38.1472 19.162 37.6816 19.2325 34.4772 19.3123L30.8933 19.4017V21.7008V24H29.5901H28.2868V20.3849V16.7699L32.6527 16.766C35.054 16.7637 37.1755 16.6635 37.367 16.5432C37.5589 16.4226 37.6762 16.0469 37.6277 15.7079L37.5399 15.0915L32.9133 15.021L28.2868 14.9505Z" fill="#004170"/>
<path d="M37.6702 24V21.8051V19.6103H38.9734H40.2767V21.8051V24H38.9734H37.6702Z" fill="#004170"/>
<path d="M0.674531 2.70302C1.34211 1.39608 2.65916 0.368503 3.99933 0.109089C4.24639 0.0611988 5.90951 0.0171401 7.69534 0.0110908L10.9422 0V2.01643V4.03286H9.81731H8.69241V3.17588V2.31889H6.5416C4.16152 2.31889 3.90923 2.3682 3.2889 2.95417C2.5073 3.69238 2.2498 4.639 2.2498 6.77359V8.16654H6.596H10.9422V9.32599V10.4854H5.4711H0L0.00153399 7.58682C0.00317021 4.32807 0.0618694 3.9024 0.674531 2.70302Z" fill="#004170"/>
<path d="M0.746289 15.3228C1.48489 13.8852 2.94205 12.7548 4.42479 12.4695C4.69814 12.4168 6.53818 12.3683 8.51399 12.3617L12.1063 12.3495V14.5676V16.7856H10.8617H9.61713V15.843V14.9003H7.23751C4.60423 14.9003 4.32511 14.9545 3.63878 15.5991C2.77403 16.4111 2.48914 17.4524 2.48914 19.8004V21.3327H7.29771H12.1063V22.6081V23.8835H6.05314H0L0.00169718 20.695C0.00350746 17.1104 0.0684513 16.6421 0.746289 15.3228Z" fill="#004170"/>
</svg>
